<svg xmlns="http://www.w3.org/2000/svg" viewBox="0 0 1600 1000" role="img" aria-hidden="true">
  <rect width="1600" height="1000" fill="#0B1849"/>
  <g stroke="#EBEDE3" stroke-opacity="0.14" fill="none"><line x1="0" y1="0" x2="0" y2="1000"/><line x1="80" y1="0" x2="80" y2="1000"/><line x1="160" y1="0" x2="160" y2="1000"/><line x1="240" y1="0" x2="240" y2="1000"/><line x1="320" y1="0" x2="320" y2="1000"/><line x1="400" y1="0" x2="400" y2="1000"/><line x1="480" y1="0" x2="480" y2="1000"/><line x1="560" y1="0" x2="560" y2="1000"/><line x1="640" y1="0" x2="640" y2="1000"/><line x1="720" y1="0" x2="720" y2="1000"/><line x1="800" y1="0" x2="800" y2="1000"/><line x1="880" y1="0" x2="880" y2="1000"/><line x1="960" y1="0" x2="960" y2="1000"/><line x1="1040" y1="0" x2="1040" y2="1000"/><line x1="1120" y1="0" x2="1120" y2="1000"/><line x1="1200" y1="0" x2="1200" y2="1000"/><line x1="1280" y1="0" x2="1280" y2="1000"/><line x1="1360" y1="0" x2="1360" y2="1000"/><line x1="1440" y1="0" x2="1440" y2="1000"/><line x1="1520" y1="0" x2="1520" y2="1000"/><line x1="1600" y1="0" x2="1600" y2="1000"/><line x1="0" y1="0" x2="1600" y2="0"/><line x1="0" y1="80" x2="1600" y2="80"/><line x1="0" y1="160" x2="1600" y2="160"/><line x1="0" y1="240" x2="1600" y2="240"/><line x1="0" y1="320" x2="1600" y2="320"/><line x1="0" y1="400" x2="1600" y2="400"/><line x1="0" y1="480" x2="1600" y2="480"/><line x1="0" y1="560" x2="1600" y2="560"/><line x1="0" y1="640" x2="1600" y2="640"/><line x1="0" y1="720" x2="1600" y2="720"/><line x1="0" y1="800" x2="1600" y2="800"/><line x1="0" y1="880" x2="1600" y2="880"/><line x1="0" y1="960" x2="1600" y2="960"/></g>
  <rect x="80" y="80" width="48" height="4" fill="#E4B028"/>
  <text x="80" y="140" font-family="ui-monospace, monospace" font-size="18" letter-spacing="6" fill="#E4B028">LEARNING</text>
  
  <circle cx="800" cy="460" r="210" fill="none" stroke="#EBEDE3" stroke-opacity="0.35"/>
  <circle cx="800" cy="460" r="8" fill="#E4B028"/>
  <circle cx="800" cy="250" r="54" fill="#0B1849" stroke="#EBEDE3" stroke-opacity="0.6"/>
    <text x="800" y="256" text-anchor="middle" font-family="Georgia, serif" font-size="18" fill="#EBEDE3">Sprint</text><circle cx="1010" cy="460" r="54" fill="#0B1849" stroke="#EBEDE3" stroke-opacity="0.6"/>
    <text x="1010" y="466" text-anchor="middle" font-family="Georgia, serif" font-size="18" fill="#EBEDE3">Make</text><circle cx="800" cy="670" r="54" fill="#0B1849" stroke="#EBEDE3" stroke-opacity="0.6"/>
    <text x="800" y="676" text-anchor="middle" font-family="Georgia, serif" font-size="18" fill="#EBEDE3">Narrate</text><circle cx="590" cy="460" r="54" fill="#0B1849" stroke="#EBEDE3" stroke-opacity="0.6"/>
    <text x="590" y="466" text-anchor="middle" font-family="Georgia, serif" font-size="18" fill="#EBEDE3">Critique</text>
  <text x="80" y="900" font-family="Georgia, serif" font-size="42" fill="#EBEDE3">Visible Learning Loop</text>
  <text x="80" y="940" font-family="ui-monospace, monospace" font-size="16" letter-spacing="4" fill="#EBEDE3" fill-opacity="0.55">FIELD NOTE</text>
</svg>