<svg xmlns="http://www.w3.org/2000/svg" viewBox="0 0 1600 900" role="img" aria-hidden="true">
  <rect width="1600" height="900" fill="#EBEDE3"/>
  <g stroke="#0B1849" stroke-opacity="0.18" fill="none"><line x1="0" y1="0" x2="0" y2="900"/><line x1="80" y1="0" x2="80" y2="900"/><line x1="160" y1="0" x2="160" y2="900"/><line x1="240" y1="0" x2="240" y2="900"/><line x1="320" y1="0" x2="320" y2="900"/><line x1="400" y1="0" x2="400" y2="900"/><line x1="480" y1="0" x2="480" y2="900"/><line x1="560" y1="0" x2="560" y2="900"/><line x1="640" y1="0" x2="640" y2="900"/><line x1="720" y1="0" x2="720" y2="900"/><line x1="800" y1="0" x2="800" y2="900"/><line x1="880" y1="0" x2="880" y2="900"/><line x1="960" y1="0" x2="960" y2="900"/><line x1="1040" y1="0" x2="1040" y2="900"/><line x1="1120" y1="0" x2="1120" y2="900"/><line x1="1200" y1="0" x2="1200" y2="900"/><line x1="1280" y1="0" x2="1280" y2="900"/><line x1="1360" y1="0" x2="1360" y2="900"/><line x1="1440" y1="0" x2="1440" y2="900"/><line x1="1520" y1="0" x2="1520" y2="900"/><line x1="1600" y1="0" x2="1600" y2="900"/><line x1="0" y1="0" x2="1600" y2="0"/><line x1="0" y1="80" x2="1600" y2="80"/><line x1="0" y1="160" x2="1600" y2="160"/><line x1="0" y1="240" x2="1600" y2="240"/><line x1="0" y1="320" x2="1600" y2="320"/><line x1="0" y1="400" x2="1600" y2="400"/><line x1="0" y1="480" x2="1600" y2="480"/><line x1="0" y1="560" x2="1600" y2="560"/><line x1="0" y1="640" x2="1600" y2="640"/><line x1="0" y1="720" x2="1600" y2="720"/><line x1="0" y1="800" x2="1600" y2="800"/><line x1="0" y1="880" x2="1600" y2="880"/></g>
  
  <circle cx="800" cy="450" r="200" fill="none" stroke="#0B1849" stroke-opacity="0.25"/>
  <text x="800" y="458" text-anchor="middle" font-family="Georgia, serif" font-size="28" fill="#0B1849">Bar</text>
  <rect x="710" y="134" width="180" height="72" fill="#EBEDE3" stroke="#0B1849" stroke-opacity="0.35"/>
    <text x="800" y="178" text-anchor="middle" font-family="Georgia, serif" font-size="22" fill="#0B1849">Sprint</text><rect x="990" y="414" width="180" height="72" fill="#EBEDE3" stroke="#0B1849" stroke-opacity="0.35"/>
    <text x="1080" y="458" text-anchor="middle" font-family="Georgia, serif" font-size="22" fill="#0B1849">Make</text><rect x="710" y="694" width="180" height="72" fill="#EBEDE3" stroke="#0B1849" stroke-opacity="0.35"/>
    <text x="800" y="738" text-anchor="middle" font-family="Georgia, serif" font-size="22" fill="#0B1849">Narrate</text><rect x="430" y="414" width="180" height="72" fill="#EBEDE3" stroke="#0B1849" stroke-opacity="0.35"/>
    <text x="520" y="458" text-anchor="middle" font-family="Georgia, serif" font-size="22" fill="#0B1849">Critique</text>
</svg>